<svg width="92" height="54" viewBox="0 0 92 54" fill="none" xmlns="http://www.w3.org/2000/svg">
<path d="M46 41.0625C48.7813 41.0625 51.5001 40.2378 53.8127 38.6925C56.1253 37.1473 57.9277 34.9511 58.9921 32.3815C60.0564 29.8119 60.3349 26.9844 59.7923 24.2565C59.2497 21.5287 57.9104 19.023 55.9437 17.0563C53.977 15.0896 51.4713 13.7503 48.7435 13.2077C46.0156 12.6651 43.1881 12.9436 40.6185 14.0079C38.0489 15.0723 35.8527 16.8747 34.3075 19.1873C32.7622 21.4999 31.9375 24.2187 31.9375 27C31.9375 30.7296 33.4191 34.3065 36.0563 36.9437C38.6935 39.5809 42.2704 41.0625 46 41.0625ZM46 16.0625C48.1632 16.0625 50.2779 16.704 52.0765 17.9058C53.8752 19.1076 55.2771 20.8158 56.1049 22.8144C56.9328 24.813 57.1494 27.0121 56.7273 29.1338C56.3053 31.2555 55.2636 33.2043 53.734 34.734C52.2043 36.2636 50.2555 37.3053 48.1338 37.7273C46.0121 38.1494 43.813 37.9328 41.8144 37.1049C39.8158 36.2771 38.1076 34.8752 36.9058 33.0765C35.704 31.2779 35.0625 29.1632 35.0625 27C35.0625 24.0992 36.2148 21.3172 38.266 19.266C40.3172 17.2148 43.0992 16.0625 46 16.0625ZM89.75 0.4375H2.25C1.8356 0.4375 1.43817 0.60212 1.14515 0.895146C0.85212 1.18817 0.6875 1.5856 0.6875 2V52C0.6875 52.4144 0.85212 52.8118 1.14515 53.1049C1.43817 53.3979 1.8356 53.5625 2.25 53.5625H89.75C90.1644 53.5625 90.5618 53.3979 90.8549 53.1049C91.1479 52.8118 91.3125 52.4144 91.3125 52V2C91.3125 1.5856 91.1479 1.18817 90.8549 0.895146C90.5618 0.60212 90.1644 0.4375 89.75 0.4375ZM3.8125 18.8984C7.54174 18.0206 10.9524 16.1205 13.6614 13.4114C16.3705 10.7024 18.2706 7.29174 19.1484 3.5625H72.8516C73.7294 7.29174 75.6295 10.7024 78.3386 13.4114C81.0476 16.1205 84.4583 18.0206 88.1875 18.8984V35.1016C84.4583 35.9794 81.0476 37.8795 78.3386 40.5886C75.6295 43.2976 73.7294 46.7083 72.8516 50.4375H19.1484C18.2706 46.7083 16.3705 43.2976 13.6614 40.5886C10.9524 37.8795 7.54174 35.9794 3.8125 35.1016V18.8984ZM88.1875 15.6719C85.3007 14.8601 82.6709 13.3201 80.5504 11.1996C78.4299 9.07915 76.8899 6.44934 76.0781 3.5625H88.1875V15.6719ZM15.9219 3.5625C15.1101 6.44934 13.5701 9.07915 11.4496 11.1996C9.32915 13.3201 6.69934 14.8601 3.8125 15.6719V3.5625H15.9219ZM3.8125 38.3281C6.69934 39.1399 9.32915 40.6799 11.4496 42.8004C13.5701 44.9209 15.1101 47.5507 15.9219 50.4375H3.8125V38.3281ZM76.0781 50.4375C76.8899 47.5507 78.4299 44.9209 80.5504 42.8004C82.6709 40.6799 85.3007 39.1399 88.1875 38.3281V50.4375H76.0781Z" fill="#D8712C"/>
</svg>
