<svg width="80" height="80" viewBox="0 0 80 80" fill="none" xmlns="http://www.w3.org/2000/svg">
<path d="M23.5417 51.3333L19.375 47.1667L6.45838 51.2917H6.04171C5.83866 51.3043 5.63524 51.2737 5.4449 51.2019C5.25456 51.13 5.08163 51.0186 4.93755 50.875L1.91671 47.8958C1.67269 47.6637 1.51654 47.3543 1.47477 47.0201C1.43299 46.6859 1.50817 46.3475 1.68755 46.0625L5.20838 40C7.38915 36.2679 10.4315 33.112 14.0813 30.796C17.731 28.48 21.8821 27.0713 26.1875 26.6875L31.375 26.2292M31.375 26.2292C34.3889 22.6458 37.1667 19.5764 39.7084 17.0208C44.5309 11.9126 50.2875 7.77552 56.6667 4.83333C63.1689 2.40286 70.0826 1.26355 77.0209 1.47917C77.4406 1.4829 77.843 1.64686 78.1459 1.9375C78.2901 2.07001 78.4054 2.23099 78.4842 2.41029C78.5631 2.58958 78.604 2.78328 78.6042 2.97917C78.7464 9.93819 77.5072 16.8563 74.9584 23.3333C72.092 29.7313 68.0013 35.5066 62.9167 40.3333C60.3542 42.9167 57.2709 45.6875 53.7084 48.6667L53.25 53.8333C52.8762 58.1367 51.4784 62.2881 49.1735 65.9413C46.8685 69.5944 43.7232 72.6433 40 74.8333L33.9792 78.3542C33.7417 78.4794 33.4769 78.5438 33.2084 78.5417C32.8097 78.5335 32.4265 78.3861 32.125 78.125L29.1042 75.0833C28.9092 74.8968 28.7706 74.6592 28.7042 74.3976C28.6379 74.136 28.6466 73.8611 28.7292 73.6042L32.75 60.5417M31.375 26.2292L19.4792 47.2708M32.75 60.5417L28.7084 56.5M32.75 60.5417L53.7917 48.6667M67.9584 20.625C67.9639 18.3632 67.0722 16.1915 65.4787 14.5864C63.8852 12.9812 61.7202 12.0735 59.4584 12.0625C58.2998 12.0053 57.1417 12.1841 56.0543 12.5881C54.9669 12.992 53.9729 13.6127 53.1327 14.4125C52.2925 15.2123 51.6235 16.1744 51.1664 17.2405C50.7094 18.3067 50.4737 19.4546 50.4737 20.6146C50.4737 21.7746 50.7094 22.9225 51.1664 23.9886C51.6235 25.0548 52.2925 26.0169 53.1327 26.8167C53.9729 27.6164 54.9669 28.2371 56.0543 28.6411C57.1417 29.0451 58.2998 29.2239 59.4584 29.1667C61.7042 29.1699 63.8605 28.2865 65.4584 26.7083C66.2622 25.9152 66.8965 24.967 67.3227 23.9213C67.7489 22.8755 67.958 21.7541 67.9375 20.625H67.9584ZM17.0834 62.9167C25.4167 61.375 40.2084 47.5 41.9375 38.0625C32.4375 39.875 18.5625 54.5833 17.0834 62.9167Z" stroke="#D8712C" stroke-width="2.08333" stroke-linecap="round" stroke-linejoin="round"/>
</svg>
